<svg id="calendar-fill" xmlns="http://www.w3.org/2000/svg" width="23.844" height="21.91" viewBox="0 0 23.844 21.91">
  <path id="Tracé_9321" data-name="Tracé 9321" d="M7.5,0A.745.745,0,0,1,8.24.745V1.49a.745.745,0,0,1-1.49,0V.745A.745.745,0,0,1,7.5,0ZM20.907,0a.745.745,0,0,1,.745.745V1.49a.745.745,0,0,1-1.49,0V.745A.745.745,0,0,1,20.907,0Z" transform="translate(-2.279 0)" fill="#979797" fill-rule="evenodd"/>
  <path id="Tracé_9322" data-name="Tracé 9322" d="M2.98,2.25A2.86,2.86,0,0,0,0,4.973V6.334H23.844V4.973a2.86,2.86,0,0,0-2.98-2.723ZM23.844,7.7H0V19.947A2.86,2.86,0,0,0,2.98,22.67H20.863a2.86,2.86,0,0,0,2.98-2.723Z" transform="translate(0 -0.76)" fill="#979797"/>
</svg>
